<svg viewBox="0 0 16 16" height="16" width="16" xmlns="http://www.w3.org/2000/svg" xml:space="preserve" style="fill-rule:evenodd;clip-rule:evenodd;stroke-linejoin:round;stroke-miterlimit:2"><path d="M9 3h6v1h5v2h-1v4.3a7.904 7.904 0 0 0-.987-.213A6.694 6.694 0 0 0 17 10c-.3 0-.637.025-1.012.075-.375.05-.705.117-.988.2V8h-2v3.25a7.892 7.892 0 0 0-1.1.987A7.18 7.18 0 0 0 11 13.4V8H9v9h1c0 .65.117 1.346.35 2.088.233.741.533 1.379.9 1.912H7c-.55 0-1.021-.196-1.412-.587A1.927 1.927 0 0 1 5 19V6H4V4h5V3Zm8 9c1.383 0 2.563.487 3.538 1.462C21.513 14.438 22 15.617 22 17s-.487 2.563-1.462 3.538C19.563 21.513 18.383 22 17 22s-2.562-.487-3.537-1.462C12.488 19.563 12 18.383 12 17s.488-2.562 1.463-3.538C14.438 12.487 15.617 12 17 12Zm-.5 2v3.2l2.15 2.15.7-.7-1.85-1.85V14h-1Z" style="fill-rule:nonzero" transform="translate(-1.597 -1.21) scale(.73684)"/></svg>