<?xml version="1.0" encoding="UTF-8" standalone="no"?>
<svg viewBox="0 0 16 16" version="1.1" xmlns="http://www.w3.org/2000/svg" xmlns:xlink="http://www.w3.org/1999/xlink" xml:space="preserve">
    <path d="M13,5L12.125,14C12.064,14.549 11.552,15 11,15L5,15C4.448,15 3.936,14.549 3.875,14L3,5L13,5ZM8,6.38C6.096,6.38 4.543,7.933 4.543,9.837C4.543,11.741 6.096,13.294 8,13.294C9.904,13.294 11.457,11.741 11.457,9.837C11.457,7.933 9.904,6.38 8,6.38ZM8,7.244C9.437,7.244 10.593,8.4 10.593,9.837C10.593,11.274 9.437,12.429 8,12.429C6.563,12.429 5.407,11.274 5.407,9.837C5.407,8.4 6.563,7.244 8,7.244ZM7.809,7.647C7.665,7.65 7.549,7.768 7.549,7.912L7.181,9.831L7.181,9.836C7.102,10.163 7.326,10.269 7.576,10.421L7.579,10.422L8.874,11.104C9.156,11.321 9.482,10.898 9.2,10.681L8.432,9.84L8.432,9.837L8.083,7.914C8.083,7.764 7.96,7.643 7.809,7.647L7.809,7.647ZM9.5,1L10,2L13,2C13.554,2 14,2.446 14,3L14,4L2,4L2,3C2,2.448 2.443,2.003 3,2L6,2L6.5,1L9.5,1Z" fill="#fff"/>
</svg>
